<?xml version="1.0" encoding="UTF-8" standalone="no"?>
<svg xmlns="http://www.w3.org/2000/svg" version="1.1" height="800" width="800">
 <path d="m345.48,263.46,0.0547-1.9928,0.62174-22.986s1.7437-18.666,26.176-13.652c2.8717,0.58933,6.7135,1.2698,8.9271,3.4854,5.2534,5.2513,3.7972,27.719,3.7972,56.578,0,35.846-0.42124,78.223-0.42124,78.223s-30.969,4.1354-71.98,42.108c-10.16,9.4091-19.175,18.211-28.353,29.28-6.7196,8.1069-13.083,17.757-22.277,28.1-6.0756,6.835-30.886,2.1771-26.074-20.758,4.3036-20.505,58.478-91.134,104.3-106.32,0.90324-0.2977,1.3184-14.312,0.5063-19.999-0.5063-3.5441-10.885,0.75945-10.885,0.75945s-2.2925,1.0551-6.0817,3.0338c-11.424,5.9662-34.169,21.269-53.155,39.749-10.136,9.8668-29.831,2.2723-26.328-14.176,2.248-10.543,18.986-25.315,35.441-39.238,29.529-24.985,53.5-35.609,62.275-38.985,0,0,3.4064-1.2171,3.459-3.2059" fill="#da251d"/>
 <path d="m452.98,263.46-0.0486-1.9888-0.62781-22.988s-1.768-18.668-26.581-13.658c-2.9203,0.58933-6.8209,1.2678-9.0709,3.4833-5.3324,5.2513-3.86,27.719-3.8641,56.578-0.004,35.846,0.41922,78.223,0.41922,78.223s31.445,4.1415,73.089,42.12c10.318,9.4111,19.472,18.215,28.792,29.286,6.8188,8.1069,13.281,17.759,22.617,28.102,6.1647,6.8371,31.366,2.1832,26.482-20.754-4.3684-20.505-59.373-91.144-105.9-106.34-0.91336-0.29973-1.3326-14.31-0.51035-19.999,0.5144-3.5441,11.056,0.75945,11.056,0.75945s2.329,1.0572,6.1789,3.0358c11.596,5.9703,34.692,21.275,53.972,39.759,10.292,9.8688,30.295,2.2763,26.739-14.172-2.2824-10.545-19.276-25.319-35.986-39.244-29.983-24.991-54.326-35.619-63.237-38.995,0,0-3.457-1.2151-3.5157-3.2079" fill="#da251d"/>
 <path d="m339.59,412.82c14.954-10.395,30.858-17.828,34.471-19.197l1.0754-15.633s5.5389-13.743,25.631-12.595c17.72,1.0126,24.24,12.467,23.543,28.1,0,0,19.667,6.268,48.269,29.45,9.8546,7.9833,20.43,18.148,32.065,30.04,53.109,54.296,35.285,68.577,20.252,71.726-14.515,3.0378-31.879-24.489-46.411-41.01-24.298-27.626-44.554-49.702-61.769-54.259-1.0956-0.29163,0.25315,34.935,0.25315,34.935s27.251,25.21,43.542,49.366c7.0457,10.442,11.797,19.29,11.645,27.087-0.5063,25.821-24.809,32.656-41.77,0.5063-12.319-23.359-21.69-31.822-29.491-31.265-5.7961,0.41314-12.785,3.0378-20.38,17.974-25.412,49.978-60.412,42.707-48.184,8.3114,15.78-44.386,39.202-63.528,44.386-68.521,2.2784-2.1933,1.2658-36.747,1.2658-36.747s-13.542,1.5189-29.28,18.014c-12.022,12.599-28.535,29.833-39.323,42.361-19.618,22.786-37.719,52.023-52.655,24.304-4.8726-9.0425,6.3571-25.05,19.239-41.012,12.886-15.971,27.425-31.895,33.416-37.466,0,0,14.768-13.741,30.21-24.47" fill="#da251d"/>
 <path d="m605.05,399.35c0,112.14-92.485,203.05-206.57,203.05-114.09,0-206.57-90.905-206.57-203.05s92.485-203.05,206.57-203.05c114.09,0,206.57,90.907,206.57,203.05z" stroke="#da251d" stroke-linecap="butt" stroke-miterlimit="4" stroke-dasharray="none" stroke-width="7.49999952" fill="none"/>
 <path d="m640.01,397.81c0,133.4-108.13,241.53-241.5,241.53-133.4,0-241.53-108.12-241.53-241.53,0-133.39,108.13-241.53,241.53-241.53,133.39,0,241.53,108.13,241.53,241.53z" stroke="#da251d" stroke-linecap="butt" stroke-miterlimit="4" stroke-dasharray="none" stroke-width="7.49999952" fill="none"/>
 <path d="m749,400.85c0,191.91-155.58,347.48-347.48,347.48-191.91,0-347.48-155.58-347.48-347.48,0-191.92,155.58-347.48,347.48-347.48,191.91,0,347.48,155.58,347.48,347.48z" stroke="#da251d" stroke-linecap="butt" stroke-miterlimit="4" stroke-dasharray="none" stroke-width="11.25000095" fill="none"/>
 <path d="m791.88,400c0,216.43-175.44,391.88-391.88,391.88-216.43,0-391.88-175.45-391.88-391.88s175.45-391.88,391.88-391.88,391.88,175.45,391.88,391.88z" stroke="#da251d" stroke-linecap="butt" stroke-miterlimit="4" stroke-dasharray="none" stroke-width="16.25" fill="none"/>
 <path d="m266.46,104.28,15.821-4.9374,7.4689,21.898,7.2988,18.099s2.9892,6.5434,13.713,1.6465c10.252-4.6843,8.2162-6.3389,6.2012-14.472-2.4039-9.7048-13.289-35.273-13.289-35.273l16.708-6.0756s9.5772,19.578,14.47,38.647c1.5574,6.0675,5.6544,20.801-17.635,29.578-21.378,8.0542-30.485,0.0121-33.331-3.5866-8.2709-10.464-17.425-45.524-17.425-45.524" fill="#da251d"/>
 <path d="m378.74,139.1-19.493,0,0-61.515,17.467,0,21.645,30.252,0-31.897,19.493,0,0,61.894-19.239,0-19.746-28.478-0.12758,29.744" fill="#da251d"/>
 <path d="m450.75,81.884,18.733,4.0504-14.683,57.339-17.72-3.7972,13.67-57.593" fill="#da251d"/>
 <path d="m513.03,98.713-17.595-7.8476-4.5567,67.717,18.986,8.7347,45.82-47.339-15.695-9.1134-30.757,31.516,3.7972-43.667" fill="#da251d"/>
 <path d="m618.52,165.89-34.809-31.137-38.985,47.845,36.707,31.139,7.9752-9.6197-23.924-22.152,7.9752-8.7347,22.277,17.974,7.0882-8.4795-21.265-17.595,6.3287-7.8476,22.783,18.227,7.8476-9.6197" fill="#da251d"/>
 <path d="m642.77,197.82-45.314,35.694,10.632,15.442s2.5132-3.0378,13.822-12.151c4.5932-3.7021,7.9974,0.10126,8.9614,3.3923,0.5792,1.9746-0.5063,3.6959-0.5063,3.6959l-13.164,20.757,13.923,14.176s8.8603-28.1,11.392-26.58c2.5315,1.5189,14.209,4.3825,21.265,1.0126,7.5945-3.6292,3.5441-23.188,3.5441-23.188zm8.1008,29.77c2.9101,4.5284,2.4586,9.9721-1.0126,12.202-3.4691,2.2277-8.6314,0.37466-11.544-4.1517-2.9101-4.5283-2.4545-9.9721,1.0126-12.202,4.2981-2.3364,9.5547,1.1712,11.544,4.1517z" fill="#da251d"/>
 <path d="m653.82,311.06c2.2784-6.2012,4.0504-5.6948,6.5819-6.7074l-7.5945-17.089s-7.1712,0.58933-9.8728,10.885c-2.6996,10.292,0.75945,30.759,15.78,40.923,6.7196,4.5486,21.518-1.3913,23.839-12.696,2.6186-12.777-6.511-22.587,0.25315-29.493,5.948-6.0756,13.944,8.7651,5.8224,17.467-1.772,1.8996,5.5693,14.304,5.5693,14.304s19.493-3.291,7.3413-32.784c-10.256-24.896-27.851-15.061-32.024-8.1008-4.5324,7.552-0.86071,14.972-0.88501,22.911-0.0122,3.3659,0.83438,8.0765-2.4059,11.264-7.7201,7.5945-15.128-3.4692-12.404-10.885" fill="#da251d"/>
 <path d="m653.15,366.42,2.0252,19.746,60.25-7.0882-3.0378-20.758-59.237,8.1008" fill="#da251d"/>
 <path d="m698.72,426.67,0.5063-18.733,18.733,1.5189-4.5567,57.718-18.227-1.0126,1.5189-19.239-43.035-5.5693,2.0252-19.239,43.035,4.5567" fill="#da251d"/>
 <path d="m692.81,514.59,7.7646-20.252-39.83,9.4496-22.952-10.126-7.7646,17.214,20.252,10.126,24.641,36.117,9.1134-17.55-15.189-21.265,23.964-3.7142" fill="#da251d"/>
 <path d="m535.93,621.34,14.176-10.126,10.885,14.43-14.43,9.3666-10.632-13.67" fill="#da251d"/>
 <path d="m507.44,637.55c-9.0956,0.16613-21.175,5.5693-23.392,16.202-2.5315,12.151,12.252,17.721,12.252,17.721-3.0378,6.0756-10.987,15.695,0.40504,26.075,11.392,10.379,37.732,1.8186,41.009-11.645,4.8099-19.746-14.618-22.852-14.429-24.202,2.3635-16.318-1.8164-23.823-15.847-24.15zm-2.8839,9.964c4.2651,0,7.6958,3.4816,7.6958,7.7463,0,4.263-3.4307,7.6958-7.6958,7.6958-4.263,0-7.7463-3.4328-7.7463-7.6958,0-4.2649,3.4833-7.7463,7.7463-7.7463zm9.5112,25.822c4.521-0.099,8.7599,3.0631,9.2725,7.392,0.54478,4.6192-2.9506,8.8404-7.8477,9.4172-4.8929,0.57738-9.3281-2.7222-9.8729-7.3413,0.59742-5.834,4.1758-8.8671,8.448-9.4679z" fill="#da251d"/>
 <path d="m440.01,656.02c-12.121,0.6075-19.793,9.2231-22.125,14.024-2.8677,5.9055,1.367,24.116,7.9488,26.985,11.098,4.8281,24.448-1.0207,24.448-1.0207s5.7718,1.685,1.2151,9.6197c-2.9527,5.1382-5.1805,5.8668-7.2907,5.7211-2.1082-0.14776-4.1009-1.1787-5.8731-3.0378-3.5441-3.7102-6.7844-1.9928-11.847,1.2151-5.063,3.2039-6.9019,8.9433,14.024,12.151,22.081,3.3844,28.61-22.901,27.492-33.771-1.1807-11.479-4.7835-27.186-18.885-30.883-3.2591-0.85438-6.3162-1.1528-9.1134-1.0126zm1.1645,12.657c4.986,0,9.0628,4.2244,9.0628,9.4172,0,5.1967-4.0766,9.4172-9.0628,9.4172-4.9839,0-9.0121-4.2205-9.0121-9.4172,0-5.1928,4.028-9.4172,9.0121-9.4172z" fill="#da251d"/>
 <path d="m373.12,657.69c-5.9371,0.28173-11.827,2.4477-15.442,7.4932-7.2259,10.09,4.0504,21.163,4.0504,21.163-5.2372,4.332-16.399,9.9031-10.177,23.998,6.2214,14.101,33.782,16.963,42.225,5.9743,12.386-16.114-4.1638-26.788-3.4428-27.948,10.531-16.932,6.3024-21.759-1.4176-26.833-3.861-2.5375-9.8595-4.1296-15.797-3.8479zm2.8353,9.4679c1.0027,0.0164,2.0126,0.22682,2.9872,0.65819,3.9005,1.7238,5.6725,6.2797,3.9491,10.177-1.7235,3.9-6.2762,5.6706-10.177,3.9491-3.9005-1.7238-5.6746-6.2765-3.9491-10.177,1.2926-2.9257,4.1813-4.6562,7.1895-4.6074zm-2.7847,27.543c1.1458-0.0927,2.3158,0.0426,3.4934,0.40504,4.7085,1.4478,7.4446,6.2417,6.0756,10.683-1.367,4.4451-6.3267,6.8675-11.037,5.4175-4.7106-1.4525-7.392-6.2368-6.025-10.683,1.0268-3.3307,4.0559-5.5442,7.4932-5.8225z" fill="#da251d"/>
 <path d="m291.15,656.19-7.4264,12.491,20.084-0.84654-12.151,38.479,14.515,5.5693,19.407-59.909-12.319-4.3906-8.6071,8.1008-13.502,0.5063" fill="#da251d"/>
 <path d="m263.65,620.08-8.1008,11.305,12.151,8.6071,8.7752-11.475-12.826-8.437" fill="#da251d"/>
 <path d="m143.42,546.69c-3.6881,2.5315-9.0737,1.0956-12.027-3.2079-2.954-4.3036-2.3583-9.8445,1.3298-12.376,3.6889-2.5315,9.0739-1.0956,12.028,3.2079,2.9538,4.3035,2.3581,9.8445-1.3308,12.376zm29.418-20.448-15.358,9.6197s-10.126-13.334-12.657-16.372c-2.5315-3.0378-11.982-8.9433-22.277-3.374-14.804,8.0056-8.9441,24.472-8.9441,24.472l19.239,30.378,49.617-30.378-9.6197-14.347" fill="#da251d"/>
 <path d="m79.684,443.71,13.331-0.17011,6.5819,28.523,10.295-3.2079-6.7512-29.027,12.827-2.3634,6.0756,27.004,11.814-2.8697-7.7638-28.353,11.814-4.3886,12.994,48.437-58.901,18.059-12.657-51.136" fill="#da251d"/>
 <path d="m80.697,370.13,0.84329-24.977,24.302,19.578,39.155-19.239-2.8701,24.639-25.315,10.126,0,3.0378,9.2827,9.1134,13.164,0,0,19.071-60.926,0,0-21.096,21.435,0,0-3.5441-19.07-16.708" fill="#da251d"/>
 <path d="m100.61,295.2-4.8929,17.882,54.85,18.065,4.7244-19.914-54.68-16.034" fill="#da251d"/>
 <path d="m134.87,223.97,9.4504-14.515,48.605,31.729-9.1134,14.513-36.117,2.0252,25.315,19.578-9.7874,12.826-48.943-29.365,10.126-17.214,36.454-0.33618-25.989-19.239" fill="#da251d"/>
 <path d="m215.55,163.99,3.291-11.056s-5.6544-9.7878-22.53-1.1807c-16.677,8.5058-22.532,24.302-19.156,39.153,3.3756,14.853,20.906,27.273,41.346,21.941,15.527-4.0504,26.919-21.096,24.217-32.995-1.5898-7.0072-15.645-20.505-14.766-19.746l-18.565,16.54,6.667,8.8602,9.1134-7.9327,5.3162,5.2311s-6.4138,16.542-18.65,15.695c-13.368-0.92146-23.152-15.096-18.734-25.315,4.0504-9.3666,15.189-12.487,20.675-9.9559" fill="#da251d"/>
</svg>
